<?xml version="1.0" standalone="no"?>
<!DOCTYPE svg PUBLIC "-//W3C//DTD SVG 20010904//EN"
 "http://www.w3.org/TR/2001/REC-SVG-20010904/DTD/svg10.dtd">
<svg version="1.0" xmlns="http://www.w3.org/2000/svg"
 width="260.000000pt" height="260.000000pt" viewBox="0 0 260.000000 260.000000"
 preserveAspectRatio="xMidYMid meet">
<metadata>
Created by potrace 1.11, written by Peter Selinger 2001-2013
</metadata>
<g transform="translate(0.000000,260.000000) scale(0.100000,-0.100000)"
fill="#000000" stroke="none">
<path d="M1453 2363 c-12 -2 -33 -15 -48 -29 -36 -33 -64 -47 -187 -88 -92
-31 -248 -71 -353 -90 -98 -18 -245 -40 -350 -51 -22 -2 -60 -7 -85 -9 -25 -3
-81 -8 -125 -11 -123 -9 -147 -16 -173 -48 -37 -44 -14 -149 36 -168 24 -9
111 -7 206 6 17 2 56 6 86 10 58 5 129 14 170 21 14 2 50 6 80 10 l56 6 13
-63 c8 -35 15 -68 17 -74 7 -29 33 -166 39 -205 4 -25 9 -58 11 -75 3 -16 7
-43 10 -60 14 -77 13 -402 -1 -480 -56 -307 -197 -480 -400 -491 -57 -3 -100
14 -138 54 -36 38 -39 83 -11 177 35 119 18 163 -69 172 -76 9 -126 -52 -152
-185 -32 -160 40 -327 169 -394 93 -48 258 -55 364 -16 218 80 386 332 446
667 14 75 15 430 2 511 -3 19 -8 58 -12 85 -7 61 -48 263 -69 346 -9 34 -15
62 -13 63 2 1 57 15 123 30 287 68 398 116 459 199 31 42 29 119 -4 151 -26
25 -61 35 -97 29z"/>
<path d="M2305 2264 c-21 -7 -52 -26 -69 -43 -17 -16 -69 -49 -116 -71 -81
-40 -191 -107 -240 -146 -111 -89 -212 -220 -245 -319 -48 -141 -12 -321 83
-411 31 -30 143 -104 157 -104 11 0 287 -140 313 -159 86 -61 83 -213 -4 -307
-82 -88 -234 -161 -344 -165 -25 0 -77 5 -116 12 -64 11 -75 11 -98 -4 -87
-57 -77 -165 19 -211 51 -24 203 -29 295 -10 176 37 357 152 447 285 91 133
99 326 19 463 -27 46 -100 116 -145 139 -61 32 -173 88 -261 130 -144 70 -181
114 -176 214 10 179 231 360 563 463 116 35 135 53 135 126 0 78 -46 123 -130
128 -27 2 -66 -3 -87 -10z"/>
</g>
</svg>
